<?xml version="1.0" encoding="UTF-8" standalone="no"?>
<svg
   xmlns:dc="http://purl.org/dc/elements/1.1/"
   xmlns:cc="http://creativecommons.org/ns#"
   xmlns:rdf="http://www.w3.org/1999/02/22-rdf-syntax-ns#"
   xmlns:svg="http://www.w3.org/2000/svg"
   xmlns="http://www.w3.org/2000/svg"
   viewBox="0 0 490.41333 34.066666"
   height="34.066666"
   width="490.41333"
   xml:space="preserve"
   id="svg2"
   version="1.1"><metadata
     id="metadata8"><rdf:RDF><cc:Work
         rdf:about=""><dc:format>image/svg+xml</dc:format><dc:type
           rdf:resource="http://purl.org/dc/dcmitype/StillImage" /></cc:Work></rdf:RDF></metadata><defs
     id="defs6" /><g
     transform="matrix(1.3333333,0,0,-1.3333333,0,34.066667)"
     id="g10"><g
       transform="scale(0.1)"
       id="g12"><path
         id="path14"
         style="fill:#231f20;fill-opacity:1;fill-rule:evenodd;stroke:none"
         d="m 542.52,116.887 c -6.582,110.218 107.593,176.519 195.414,115.047 v -50.5 c -40.395,43.039 -147.192,46.711 -150.18,-44.789 -2.156,-66.3755 53.137,-93.5317 81.238,-93.5317 68.496,0 86.504,61.0347 77.278,61.0347 h -53.567 v 43.04 c 34.692,0 68.945,0 103.629,0 C 799.848,85.2695 790.637,52.3359 754.18,25.9961 676.895,-30.2148 548.676,11.9336 542.52,116.887 v 0" /><path
         id="path16"
         style="fill:#ed1c24;fill-opacity:1;fill-rule:evenodd;stroke:none"
         d="m 3062.62,198.875 c 10.04,38.711 46.98,55.266 66.39,53.113 83.2,-10.773 96.98,-123.972 -66.39,-248.5505 -163.37,124.5785 -149.58,237.7775 -66.38,248.5505 19.39,2.153 56.35,-14.402 66.38,-53.113" /><path
         id="path18"
         style="fill:#231f20;fill-opacity:1;fill-rule:evenodd;stroke:none"
         d="M 3208.54,10.8008 V 247.266 l 113.8,1.296 -0.88,-42.519 h -71.73 l 0.44,-52.93 h 68.63 v -41.218 h -67.75 V 51.582 h 70.84 V 10.8008 h -113.35 v 0" /><path
         id="path20"
         style="fill:#231f20;fill-opacity:1;fill-rule:evenodd;stroke:none"
         d="M 2554.02,11.0547 V 246.23 h 46.5 l -1.33,-195.2534 72.62,-1.2891 V 11.0547 h -117.79 v 0" /><path
         id="path22"
         style="fill:#231f20;fill-opacity:1;fill-rule:evenodd;stroke:none"
         d="m 3399.6,138.008 c 85.02,-12.149 87.23,78.972 0.44,67.683 l -0.44,-67.683 z m -0.92,-5.781 V 9.00391 L 3354.4,9.43359 V 245.898 c 30.11,-0.871 95.65,4.344 122.66,-12.578 47.81,-29.504 38.96,-88.086 -3.54,-114.98 26.56,-27.7697 52.24,-59.008 88.55,-69.4142 61.55,-18.2227 70.4,23.4219 64.2,35.5703 -13.72,25.1719 -57.12,32.1059 -78.37,52.4959 -55.35,51.629 18.15,136.68 94.76,105.008 v -41.66 c -69.96,31.68 -90.34,-36.883 -27.45,-54.664 42.06,-12.153 73.94,-59.0119 53.57,-101.5354 -21.7,-44.687475 -68.19,-39.92185 -112.02,-38.18357 -43.39,1.30859 -151,126.26997 -158.08,126.26997 v 0" /><path
         id="path24"
         style="fill:#231f20;fill-opacity:1;fill-rule:evenodd;stroke:none"
         d="m 1592.87,16.543 -0.44,49.0273 c 28.34,-12.1328 65.53,-32.0937 78.82,-10.4101 30.11,49.4688 -60.22,56.4098 -80.59,92.8478 -19.92,36.453 -9.29,73.328 28.78,92.422 37.2,18.66 58.45,3.906 76.17,2.605 l -1.34,-43.828 c -37.63,26.035 -87.22,-11.277 -58,-35.574 20.81,-17.356 68.18,-35.149 82.8,-57.703 17.27,-27.7698 6.2,-58.5667 -9.3,-76.7894 C 1679.66,-5.13672 1631.4,3.53516 1592.87,16.543 v 0" /><path
         id="path26"
         style="fill:#231f20;fill-opacity:1;fill-rule:evenodd;stroke:none"
         d="M 1518.71,9.23828 V 244.832 h 45.16 V 9.66797 l -45.16,-0.42969 v 0" /><path
         id="path28"
         style="fill:#231f20;fill-opacity:1;fill-rule:evenodd;stroke:none"
         d="m 1838.03,8.65234 0.44,235.58566 116.89,0.879 v -40.781 l -70.84,-0.441 v -52.938 h 67.75 v -41.211 h -67.75 V 9.96094 l -46.49,-1.3086 v 0" /><path
         id="path30"
         style="fill:#231f20;fill-opacity:1;fill-rule:evenodd;stroke:none"
         d="M 129.734,4.19922 0,247.188 49.1523,247.621 130.625,94.8906 210.32,246.754 265.23,247.188 129.734,4.19922 v 0" /><path
         id="path32"
         style="fill:#231f20;fill-opacity:1;fill-rule:evenodd;stroke:none"
         d="M 277.875,10.0117 V 246.473 h 47.379 V 9.57031 l -47.379,0.44139 v 0" /><path
         id="path34"
         style="fill:#231f20;fill-opacity:1;fill-rule:evenodd;stroke:none"
         d="M 358.262,9.14062 357.371,246.043 h 69.074 c 21.258,0 61.993,-10.414 77.493,-40.352 19.917,-37.312 0,-68.988 -25.243,-88.945 32.77,-35.1444 73.063,-73.7577 104.496,-107.60538 l -55.347,0.42969 -36.313,36.01559 -70.84,69.4261 -18.597,19.957 c 82.359,-13.016 89.437,86.777 0.886,71.593 V 9.57031 L 358.262,9.14062 v 0" /><path
         id="path36"
         style="fill:#231f20;fill-opacity:1;fill-rule:evenodd;stroke:none"
         d="M 809.961,10.4375 V 244.746 h 43.828 V 10.4375 h -43.828 v 0" /><path
         id="path38"
         style="fill:#231f20;fill-opacity:1;fill-rule:evenodd;stroke:none"
         d="m 888.32,11.1406 0.442,238.2034 h 53.582 L 1046.84,84.9102 V 248.914 l 44.27,0.43 V 11.582 L 1037.98,11.1406 931.27,177.324 V 11.1406 h -42.95 v 0" /><path
         id="path40"
         style="fill:#231f20;fill-opacity:1;fill-rule:evenodd;stroke:none"
         d="m 1122.22,10.9961 1.32,235.6059 h 46.94 V 10.5664 l -48.26,0.4297 v 0" /><path
         id="path42"
         style="fill:#231f20;fill-opacity:1;fill-rule:evenodd;stroke:none"
         d="m 1284.98,100.348 59.78,-0.4418 -29.67,57.7108 -30.11,-57.269 z m -97.53,-89.6722 119.11,239.5042 7.08,0.433 119.11,-240.80831 h -49.59 l -27.45,53.80861 h -92.55 l -26.12,-52.9375 h -49.59 v 0" /><path
         id="path44"
         style="fill:#231f20;fill-opacity:1;fill-rule:evenodd;stroke:none"
         d="m 2098.21,214.082 c -49.56,0 -89.98,-39.27 -89.98,-87.402 0,-48.1409 40.42,-87.4027 89.98,-87.4027 49.55,0 89.97,39.2618 89.97,87.4027 0,48.132 -40.42,87.402 -89.97,87.402 z m -129.08,-91.73 c -1.33,65.078 51.37,134.062 135.06,128.867 87.23,-5.645 127.96,-71.16 125.74,-127.137 C 2227.28,52.0703 2169.72,0 2101.52,0 2029.36,0 1970.91,49.9023 1969.13,122.352 v 0" /><path
         id="path46"
         style="fill:#231f20;fill-opacity:1;fill-rule:evenodd;stroke:none"
         d="m 2793.47,219.609 c -49.1,0 -89.14,-38.898 -89.14,-86.601 0,-47.6916 40.04,-86.6018 89.14,-86.6018 49.1,0 89.16,38.9102 89.16,86.6018 0,47.703 -40.06,86.601 -89.16,86.601 z M 2794.96,3.35938 C 2712.61,2.05078 2664.35,64.1055 2663.9,127.883 c -0.44,62.047 42.95,127.125 130.17,127.566 81.48,0 128.42,-61.613 130.63,-120.625 C 2926.91,76.6836 2885.29,5.09766 2794.96,3.35938 v 0" /><path
         id="path48"
         style="fill:#231f20;fill-opacity:1;fill-rule:evenodd;stroke:none"
         d="m 2249.25,10.1953 -0.88,236.9027 h 69.06 c 21.27,0 61.99,-10.418 77.5,-40.356 19.92,-37.312 0,-68.988 -25.24,-88.945 32.76,-35.1447 73.05,-73.7658 104.5,-107.6017 l -55.35,0.4297 -36.31,36.0156 -70.84,69.4184 -18.6,19.957 c 82.35,-13.012 89.44,86.781 0.88,71.589 V 10.625 l -44.72,-0.4297 v 0" /><path
         id="path50"
         style="fill:#231f20;fill-opacity:1;fill-rule:nonzero;stroke:none"
         d="m 3662.86,230.145 h 1.67 c 1.91,0 3.52,0.695 3.52,2.476 0,1.27 -0.92,2.535 -3.52,2.535 -0.75,0 -1.26,-0.058 -1.67,-0.117 z m 0,-8 h -2.3 v 14.453 c 1.21,0.168 2.36,0.343 4.09,0.343 2.2,0 3.62,-0.461 4.49,-1.093 0.87,-0.633 1.32,-1.614 1.32,-2.996 0,-1.899 -1.26,-3.051 -2.81,-3.512 v -0.113 c 1.27,-0.235 2.13,-1.387 2.42,-3.516 0.34,-2.246 0.68,-3.106 0.92,-3.566 h -2.43 c -0.35,0.46 -0.69,1.781 -0.97,3.683 -0.35,1.844 -1.27,2.531 -3.11,2.531 h -1.62 z m 2.42,18.48 c -5.7,0 -10.37,-4.895 -10.37,-10.937 0,-6.165 4.67,-10.997 10.43,-10.997 5.76,-0.058 10.36,4.832 10.36,10.938 0,6.101 -4.6,10.996 -10.36,10.996 z m 0.06,2.016 c 7.08,0 12.72,-5.758 12.72,-12.953 0,-7.317 -5.64,-13.012 -12.78,-13.012 -7.09,0 -12.84,5.695 -12.84,13.012 0,7.195 5.75,12.953 12.84,12.953 h 0.06" /></g></g></svg>